<?xml version="1.0" encoding="UTF-8"?>
<svg version="1.1" xmlns="http://www.w3.org/2000/svg" width="192" height="192">
<path d="M0 0 C63.36 0 126.72 0 192 0 C192 63.36 192 126.72 192 192 C128.64 192 65.28 192 0 192 C0 128.64 0 65.28 0 0 Z " fill="#FDFDFD" transform="translate(0,0)"/>
<path d="M0 0 C2.11919396 1.26402345 4.23898705 2.52704298 6.359375 3.7890625 C7.89754883 4.70993652 7.89754883 4.70993652 9.46679688 5.64941406 C13.35805244 7.95829539 17.29500926 10.1776752 21.25 12.375 C42.71261416 24.37177217 42.71261416 24.37177217 47.375 33.375 C47.73464844 34.00148437 48.09429687 34.62796875 48.46484375 35.2734375 C50.94594784 41.00233878 49.84875711 47.9094972 47.8125 53.625 C44.70776605 60.44026964 40.3892093 64.73672988 33.5625 67.8125 C26.71510882 70.20908691 20.48986683 70.47579956 13.6875 67.8125 C8.01835265 64.96787465 3.32116978 61.16094436 1.25 55.0625 C0.96125 54.175625 0.6725 53.28875 0.375 52.375 C-1.97254398 51.03596786 -1.97254398 51.03596786 -4.625 50.375 C-5.96550052 49.72286461 -7.30161368 49.06120031 -8.625 48.375 C-8.89812012 49.09631104 -9.17124023 49.81762207 -9.45263672 50.56079102 C-10.59857865 53.31157666 -11.90860712 55.81449639 -13.3828125 58.40234375 C-13.92679687 59.36076172 -14.47078125 60.31917969 -15.03125 61.30664062 C-15.5984375 62.29857422 -16.165625 63.29050781 -16.75 64.3125 C-17.29398437 65.26962891 -17.83796875 66.22675781 -18.3984375 67.21289062 C-22.7940238 74.94111187 -27.21393862 82.65564259 -31.625 90.375 C-53.735 90.375 -75.845 90.375 -98.625 90.375 C-97.17508023 86.75020058 -95.89026218 83.98958813 -93.875 80.75 C-91.75152351 77.27568545 -89.73334322 73.77771114 -87.8125 70.1875 C-85.37657038 65.66728415 -82.78537135 61.26483332 -80.125 56.875 C-77.5901239 52.69183008 -75.11121494 48.50691421 -72.8125 44.1875 C-69.44653067 37.89870016 -65.71620438 31.83287941 -62.02612305 25.73120117 C-59.29431125 21.20073605 -56.6278487 16.66091723 -54.125 12 C-48.36363897 1.30984456 -42.18473146 -5.33884231 -30.625 -9.3125 C-18.9354749 -11.1389883 -9.67308219 -5.88538248 0 0 Z " fill="#1F1F1D" transform="translate(141.625,84.625)"/>
<path d="M0 0 C2.55574989 1.37697545 5.10510081 2.76424153 7.6484375 4.1640625 C9.95793714 5.42917303 12.27210885 6.67181698 14.6015625 7.8984375 C22.78900039 12.28542474 29.66847102 16.52597543 33.4375 25.375 C34.60982464 32.92998104 34.75654236 38.17082405 31 45 C22.92138585 45.09579384 15.01659634 45.12513633 7 44 C7 45.32 7 46.64 7 48 C13.6 48.33 20.2 48.66 27 49 C25.77398771 52.67803687 24.15396467 53.37887679 20.82421875 55.1484375 C14.39985382 58.14739158 7.41982554 57.74049124 0.875 55.4375 C-5.41128111 52.70894547 -8.44167925 48.48357369 -12 42.8125 C-14.28422368 39.60031045 -16.6980952 38.09509449 -20 36 C-15.91727765 27.54823451 -11.79220591 19.32994473 -6.609375 11.484375 C-4.20202058 7.76816769 -2.09021621 3.90109478 0 0 Z " fill="#FAFAFA" transform="translate(155,95)"/>
<path d="M0 0 C2.92396485 0.62328649 5.26368369 1.54953148 7.87109375 3.00390625 C8.97022095 3.61443848 8.97022095 3.61443848 10.09155273 4.23730469 C10.86571533 4.67461914 11.63987793 5.11193359 12.4375 5.5625 C13.64031616 6.23587402 13.64031616 6.23587402 14.86743164 6.92285156 C20.70266014 10.21132182 26.40687267 13.66757298 32.0859375 17.21875 C34.70776197 18.82136657 37.35106142 20.30613797 40.0625 21.75 C45.66224475 24.77553373 51.18740469 27.9226688 56.6875 31.125 C57.59830322 31.64030273 58.50910645 32.15560547 59.44750977 32.68652344 C60.71679321 33.43337402 60.71679321 33.43337402 62.01171875 34.1953125 C62.77959717 34.63891113 63.54747559 35.08250977 64.33862305 35.53955078 C64.88687744 36.02149902 65.43513184 36.50344727 66 37 C66 38.32 66 39.64 66 41 C45.52041419 41.40156051 29.57298816 38.43408974 13.53125 24.53125 C7.84603197 18.84603197 1.72996406 11.66776791 -1 4 C-0.62109375 1.7421875 -0.62109375 1.7421875 0 0 Z " fill="#222220" transform="translate(2,39)"/>
<path d="M0 0 C11.44409909 1.47665795 22.80051341 9.22940243 30 18 C32.2139403 21.2297482 34.15138139 24.54999444 36 28 C36.598125 29.11375 37.19625 30.2275 37.8125 31.375 C39.49655774 36.51580784 39.74379701 41.61973714 40 47 C36 47 36 47 33.51953125 44.54296875 C32.60512619 43.43431796 31.70349782 42.3150487 30.8125 41.1875 C30.32837646 40.59509521 29.84425293 40.00269043 29.34545898 39.39233398 C27.88625376 37.60326735 26.44246443 35.80257335 25 34 C23.52267152 32.18600142 22.04364242 30.37338581 20.5625 28.5625 C19.84707031 27.68335937 19.13164063 26.80421875 18.39453125 25.8984375 C15.06524014 21.86852885 11.66133599 17.90460003 8.24829102 13.94555664 C7.29464797 12.83920238 6.34394789 11.73030323 5.39648438 10.61865234 C4.4453243 9.51617134 3.47699598 8.42832472 2.49414062 7.35400391 C1.078125 5.76953125 1.078125 5.76953125 -1 3 C-0.67 2.01 -0.34 1.02 0 0 Z " fill="#242422" transform="translate(44,14)"/>
<path d="M0 0 C6.12975125 2.87016588 12.00513363 6.09519213 17.8125 9.5625 C18.44615479 9.93818115 19.07980957 10.3138623 19.73266602 10.70092773 C26.30502123 14.66516416 30.45497357 18.15443172 34 25 C34.53947266 25.93972656 34.53947266 25.93972656 35.08984375 26.8984375 C37.57094784 32.62733878 36.47375711 39.5344972 34.4375 45.25 C31.33276605 52.06526964 27.0142093 56.36172988 20.1875 59.4375 C13.34010882 61.83408691 7.11486683 62.10079956 0.3125 59.4375 C-5.35664735 56.59287465 -10.05383022 52.78594436 -12.125 46.6875 C-12.41375 45.800625 -12.7025 44.91375 -13 44 C-15.36186139 42.73854232 -15.36186139 42.73854232 -18 42 C-19.36365283 41.04175747 -20.70794169 40.05278825 -22 39 C-21.34 38.34 -20.68 37.68 -20 37 C-15.08446838 40.39717852 -11.0136395 43.53603734 -7.875 48.6875 C-4.76766981 53.7541745 -1.60173846 55.60577866 3.9375 57.75 C10.74239388 58.57483562 16.80871823 58.11891638 23 55 C25.22982088 52.97943323 25.22982088 52.97943323 27 51 C26.05898437 51.01160156 25.11796875 51.02320313 24.1484375 51.03515625 C22.90320313 51.04417969 21.65796875 51.05320313 20.375 51.0625 C18.53035156 51.07990234 18.53035156 51.07990234 16.6484375 51.09765625 C13.32276209 51.00863924 10.25952412 50.63686087 7 50 C7 48.68 7 47.36 7 46 C14.92 46 22.84 46 31 46 C33.93832698 38.65418254 34.0781774 31.41560918 31 24 C26.09804773 17.11412102 20.02146123 13.75743949 12.6875 9.75 C10.49935813 8.54467839 8.31550657 7.3315242 6.13671875 6.109375 C4.69365356 5.31998535 4.69365356 5.31998535 3.22143555 4.51464844 C1 3 1 3 0 0 Z " fill="#4A4A49" transform="translate(155,93)"/>
<path d="M0 0 C2.5625 1.375 2.5625 1.375 4 3 C4 3.66 4 4.32 4 5 C2.35 5.33 0.7 5.66 -1 6 C-1.38133299 7.9914056 -1.71325582 9.99279077 -2 12 C-0.87465895 13.35618499 -0.87465895 13.35618499 2.0625 13.0625 C3.031875 13.041875 4.00125 13.02125 5 13 C3.75023244 16.65316671 3.32901247 17.78065836 0 20 C-3.06526351 20.54531842 -5.93408329 20.54325893 -9 20 C-11.75569447 17.81840855 -13.43588747 16.12822506 -15 13 C-15.12150428 8.50434162 -14.80266747 5.0284177 -12 1.4375 C-7.91617884 -0.51933097 -4.45295841 -0.70615945 0 0 Z " fill="#F4F4F4" transform="translate(141,89)"/>
<path d="M0 0 C6.12975125 2.87016588 12.00513363 6.09519213 17.8125 9.5625 C18.76298218 10.12602173 18.76298218 10.12602173 19.73266602 10.70092773 C26.30502123 14.66516416 30.45497357 18.15443172 34 25 C34.53947266 25.93972656 34.53947266 25.93972656 35.08984375 26.8984375 C37.25539921 31.89873295 36.66039919 37.83791049 35.1015625 42.94140625 C34.14032728 45.33767703 33.12817574 47.67817403 32 50 C31.67 49.34 31.34 48.68 31 48 C29.02 48 27.04 48 25 48 C25 47.67 25 47.34 25 47 C26.423125 46.9071875 26.423125 46.9071875 27.875 46.8125 C31.07177654 46.33922533 31.07177654 46.33922533 32.375 44.0625 C33.756312 37.29407119 33.66873759 30.42923146 31 24 C26.09804773 17.11412102 20.02146123 13.75743949 12.6875 9.75 C10.49935813 8.54467839 8.31550657 7.3315242 6.13671875 6.109375 C4.69365356 5.31998535 4.69365356 5.31998535 3.22143555 4.51464844 C1 3 1 3 0 0 Z " fill="#50504F" transform="translate(155,93)"/>
<path d="M0 0 C8.13544686 -0.28545428 15.97649696 0.81603117 24 2 C23.30621489 5.26011642 22.54106009 6.79038253 20 9 C19.34 8.67 18.68 8.34 18 8 C18.66 7.01 19.32 6.02 20 5 C19.05898437 5.01160156 18.11796875 5.02320313 17.1484375 5.03515625 C15.90320313 5.04417969 14.65796875 5.05320313 13.375 5.0625 C12.14523438 5.07410156 10.91546875 5.08570313 9.6484375 5.09765625 C6.32276209 5.00863924 3.25952412 4.63686087 0 4 C0 2.68 0 1.36 0 0 Z " fill="#2D2D2B" transform="translate(162,139)"/>
<path d="M0 0 C4.75 1.875 4.75 1.875 7 3 C5.375 8.75 5.375 8.75 2 11 C0.02 9.68 -1.96 8.36 -4 7 C-2.68 4.69 -1.36 2.38 0 0 Z " fill="#2D2D2B" transform="translate(53,128)"/>
<path d="M0 0 C2.46800047 1.15173355 4.04783565 2.04783565 6 4 C5.63318342 6.93453261 5.13562754 7.86437246 3 10 C-0.29714793 9.67028521 -1.6226839 9.3773161 -4 7 C-3.68134222 3.70720291 -2.45484649 2.13464912 0 0 Z " fill="#2F2F2D" transform="translate(87,72)"/>
<path d="M0 0 C1.25664978 2.90600261 2 4.79604584 2 8 C-0.15622879 9.30913891 -1.57952098 10 -4.125 10 C-6 9 -6 9 -7.25 5.9375 C-7.4975 4.968125 -7.745 3.99875 -8 3 C-2.25 0 -2.25 0 0 0 Z " fill="#2D2D2B" transform="translate(104,63)"/>
<path d="M0 0 C2.56695636 0.39491636 4.67123994 0.83561997 7 2 C6.47731534 4.76276177 5.89130413 7.3260876 5 10 C2.07120629 9.37240135 -0.36095629 8.41377341 -3 7 C-1.125 1.125 -1.125 1.125 0 0 Z " fill="#2E2E2C" transform="translate(36,157)"/>
<path d="M0 0 C4.75 1.875 4.75 1.875 7 3 C6.40072174 6.35595828 5.15377564 8.37801226 3 11 C1.02 9.68 -0.96 8.36 -3 7 C-1.125 1.125 -1.125 1.125 0 0 Z " fill="#2D2D2B" transform="translate(77,86)"/>
<path d="M0 0 C5.75 1.875 5.75 1.875 8 3 C7.25 5.9375 7.25 5.9375 6 9 C4.125 10 4.125 10 2 10 C-0.25 9.0625 -0.25 9.0625 -2 8 C-1.125 2.25 -1.125 2.25 0 0 Z " fill="#2C2C2B" transform="translate(130,63)"/>
<path d="M0 0 C3.68754757 0.49831724 5.60490662 1.10067643 8 4 C6.02 6.97 6.02 6.97 4 10 C-1.875 7.25 -1.875 7.25 -3 5 C-1.5625 2.375 -1.5625 2.375 0 0 Z " fill="#2C2C2A" transform="translate(44,143)"/>
<path d="M0 0 C4.75 1.875 4.75 1.875 7 3 C6.38722388 5.96175123 5.74627478 7.38058783 4 10 C-0.55371901 9.52066116 -0.55371901 9.52066116 -2.5 7.25 C-3 5 -3 5 -1.625 2.25 C-1.08875 1.5075 -0.5525 0.765 0 0 Z " fill="#2A2A28" transform="translate(69,100)"/>
<path d="M0 0 C3.465 1.485 3.465 1.485 7 3 C6.38722388 5.96175123 5.74627478 7.38058783 4 10 C-0.75 9.25 -0.75 9.25 -3 7 C-2.61121812 3.98694043 -1.73543126 2.60314689 0 0 Z " fill="#2B2B29" transform="translate(61,114)"/>
<path d="M0 0 C2.64 0 5.28 0 8 0 C8 2.64 8 5.28 8 8 C5.36 8 2.72 8 0 8 C0 5.36 0 2.72 0 0 Z " fill="#252523" transform="translate(113,61)"/>
<path d="M0 0 C4.55555556 0.55555556 4.55555556 0.55555556 6 2 C6.1875 4.4375 6.1875 4.4375 6 7 C5.34 7.66 4.68 8.32 4 9 C-0.55555556 8.44444444 -0.55555556 8.44444444 -2 7 C-2.1875 4.5625 -2.1875 4.5625 -2 2 C-1.34 1.34 -0.68 0.68 0 0 Z " fill="#292927" transform="translate(179,123)"/>
<path d="M0 0 C0.66 0.66 1.32 1.32 2 2 C0.730447 2.64834654 -0.54069706 3.29357815 -1.8125 3.9375 C-2.52019531 4.29714844 -3.22789062 4.65679687 -3.95703125 5.02734375 C-7.53150074 6.72914662 -10.27642349 7.1132932 -14.1875 7.0625 C-15.08855469 7.05347656 -15.98960937 7.04445312 -16.91796875 7.03515625 C-17.60503906 7.02355469 -18.29210937 7.01195312 -19 7 C-19.33 6.34 -19.66 5.68 -20 5 C-18.97519531 4.89042969 -17.95039063 4.78085938 -16.89453125 4.66796875 C-15.53378133 4.50843255 -14.17310806 4.3482416 -12.8125 4.1875 C-12.13896484 4.11724609 -11.46542969 4.04699219 -10.77148438 3.97460938 C-6.50088615 3.45380471 -3.51220296 2.48923123 0 0 Z " fill="#4C4C4B" transform="translate(179,147)"/>
<path d="M0 0 C7.37303523 3.47060444 14.2004184 7.51434446 21 12 C18 13 18 13 16.11474609 12.24316406 C15.42461426 11.83807617 14.73448242 11.43298828 14.0234375 11.015625 C13.270625 10.57476562 12.5178125 10.13390625 11.7421875 9.6796875 C10.96101562 9.20789063 10.17984375 8.73609375 9.375 8.25 C8.58609375 7.79367188 7.7971875 7.33734375 6.984375 6.8671875 C1.12864955 3.38594866 1.12864955 3.38594866 0 0 Z " fill="#484746" transform="translate(155,93)"/>
<path d="M0 0 C0.66 0.66 1.32 1.32 2 2 C0.76115681 2.72767003 -0.49168341 3.43154815 -1.75 4.125 C-2.79414063 4.71667969 -2.79414063 4.71667969 -3.859375 5.3203125 C-6 6 -6 6 -8.265625 5.1171875 C-8.83796875 4.74851563 -9.4103125 4.37984375 -10 4 C-9.36191406 3.79503906 -8.72382813 3.59007812 -8.06640625 3.37890625 C-7.24011719 3.10949219 -6.41382813 2.84007812 -5.5625 2.5625 C-4.73878906 2.29566406 -3.91507813 2.02882812 -3.06640625 1.75390625 C-1.03780412 1.17844506 -1.03780412 1.17844506 0 0 Z " fill="#545453" transform="translate(179,147)"/>
</svg>
